<svg preserveAspectRatio="xMidYMin slice" viewBox="0 0 720 177" xmlns="http://www.w3.org/2000/svg" xmlns:xlink="http://www.w3.org/1999/xlink"><mask id="a" fill="#fff"><path d="m0 0h77.9006676v119h-77.9006676z" fill="#fff" fill-rule="evenodd"/></mask><mask id="b" fill="#fff"><path d="m0 0h77.9006676v119h-77.9006676z" fill="#fff" fill-rule="evenodd"/></mask><g fill="#fff" fill-rule="evenodd"><g fill-rule="nonzero" transform="translate(313.085 145.44)"><path d="m13.764 6.665v2.015c-1.271-1.395-3.007-2.449-5.394-2.449-4.805 0-8.37 3.72-8.37 8.804 0 5.022 3.472 8.928 8.37 8.928 2.387 0 4.154-1.023 5.394-2.356v1.953h4.154v-16.895zm-4.681 13.33c-2.79 0-4.712-2.201-4.712-4.898 0-2.635 1.891-4.867 4.712-4.867 2.79 0 4.743 2.232 4.743 4.867 0 2.666-1.953 4.898-4.743 4.898z"/><path d="m29.512 23.56h4.371v-9.052c0-2.542 1.581-4.278 3.875-4.278 2.108 0 3.534 1.457 3.534 4.185v9.145h4.371v-10.323c0-4.774-3.162-7.037-6.572-7.037-2.511 0-4.464 1.24-5.332 2.666v-8.866h-4.247z"/><path d="m65.813 14.725c0-5.363-3.658-8.494-8.463-8.494-5.27 0-8.804 3.813-8.804 8.866 0 4.526 2.852 8.835 9.176 8.835 3.131 0 5.766-1.147 7.378-2.325l-1.736-3.069c-1.426.992-3.596 1.705-5.456 1.705-2.883 0-4.402-1.55-4.929-3.596h12.679c.093-.62.155-1.24.155-1.922zm-8.463-4.867c2.232 0 3.813 1.364 4.216 3.534h-8.587c.527-2.201 2.17-3.534 4.371-3.534z"/><path d="m81.437 0v8.618c-1.178-1.364-2.821-2.387-5.146-2.387-4.743 0-8.37 3.844-8.37 8.866 0 5.084 3.596 8.866 8.37 8.866 2.387 0 4.061-1.054 5.239-2.48v2.077h4.278v-23.56zm-4.464 19.995c-2.821 0-4.712-2.201-4.712-4.898 0-2.666 1.891-4.867 4.712-4.867s4.681 2.201 4.681 4.867c0 2.697-1.86 4.898-4.681 4.898z"/><path d="m102.703 6.665v1.86c-1.209-1.333-2.914-2.294-5.208-2.294-4.805 0-8.618 3.596-8.618 8.711 0 4.96 3.441 8.649 8.432 8.649 2.356 0 4.03-.868 5.208-2.17v.868c0 2.635-1.829 4.681-5.27 4.681-2.263 0-4.402-.961-5.921-1.984l-1.705 3.286c1.984 1.426 4.774 2.449 7.75 2.449 5.425 0 9.362-3.348 9.362-8.835v-15.221zm-4.743 13.113c-2.697 0-4.681-2.046-4.681-4.805 0-2.728 1.984-4.743 4.681-4.743s4.681 2.015 4.681 4.743-1.984 4.805-4.681 4.805z"/><path d="m127.1 14.725c0-5.363-3.658-8.494-8.463-8.494-5.27 0-8.804 3.813-8.804 8.866 0 4.526 2.852 8.835 9.176 8.835 3.131 0 5.766-1.147 7.378-2.325l-1.736-3.069c-1.426.992-3.596 1.705-5.456 1.705-2.883 0-4.402-1.55-4.929-3.596h12.679c.093-.62.155-1.24.155-1.922zm-8.463-4.867c2.232 0 3.813 1.364 4.216 3.534h-8.587c.527-2.201 2.17-3.534 4.371-3.534z"/><path d="m130.107 23.56h4.371v-9.052c0-2.542 1.581-4.278 3.875-4.278 2.108 0 3.534 1.457 3.534 4.185v9.145h4.371v-10.323c0-4.774-3.162-7.037-6.572-7.037-2.511 0-4.464 1.24-5.332 2.666v-8.866h-4.247z"/><path d="m158.162 23.994c5.394 0 9.052-3.968 9.052-8.897 0-4.867-3.658-8.897-9.052-8.897s-9.052 4.03-9.052 8.897c0 4.929 3.658 8.897 9.052 8.897zm0-4.061c-2.635 0-4.681-2.139-4.681-4.836 0-2.666 2.046-4.805 4.681-4.805s4.681 2.139 4.681 4.805c0 2.697-2.046 4.836-4.681 4.836z"/><path d="m183.21 6.665v1.86c-1.209-1.333-2.914-2.294-5.208-2.294-4.805 0-8.618 3.596-8.618 8.711 0 4.96 3.441 8.649 8.432 8.649 2.356 0 4.03-.868 5.208-2.17v.868c0 2.635-1.829 4.681-5.27 4.681-2.263 0-4.402-.961-5.921-1.984l-1.705 3.286c1.984 1.426 4.774 2.449 7.75 2.449 5.425 0 9.362-3.348 9.362-8.835v-15.221zm-4.743 13.113c-2.697 0-4.681-2.046-4.681-4.805 0-2.728 1.984-4.743 4.681-4.743s4.681 2.015 4.681 4.743-1.984 4.805-4.681 4.805z"/><path d="m203.236 23.56v-23.56h-4.371v23.56z"/><path d="m220.038 6.665v2.015c-1.271-1.395-3.007-2.449-5.394-2.449-4.805 0-8.37 3.72-8.37 8.804 0 5.022 3.472 8.928 8.37 8.928 2.387 0 4.154-1.023 5.394-2.356v1.953h4.154v-16.895zm-4.681 13.33c-2.79 0-4.712-2.201-4.712-4.898 0-2.635 1.891-4.867 4.712-4.867 2.79 0 4.743 2.232 4.743 4.867 0 2.666-1.953 4.898-4.743 4.898z"/><path d="m237.646 6.231c-2.325 0-3.968 1.023-5.146 2.387v-8.618h-4.371v23.56h4.247v-2.108c1.178 1.426 2.852 2.511 5.27 2.511 4.805 0 8.432-3.782 8.432-8.835s-3.627-8.897-8.432-8.897zm-.682 13.733c-2.79 0-4.65-2.201-4.65-4.867 0-2.635 1.86-4.836 4.65-4.836s4.65 2.17 4.65 4.836-1.86 4.867-4.65 4.867z"/><path d="m264.864 23.932c3.503 0 6.51-1.767 7.936-4.464l-3.534-2.077c-.744 1.457-2.511 2.542-4.309 2.542-2.697 0-4.712-2.077-4.712-4.836 0-2.728 2.046-4.805 4.805-4.805 1.798 0 3.348.992 4.309 2.573l3.503-1.922c-1.426-3.069-4.526-4.712-7.874-4.712-5.363 0-9.083 3.72-9.083 8.866s3.689 8.835 8.959 8.835z"/><path d="m283.65 23.994c5.394 0 9.052-3.968 9.052-8.897 0-4.867-3.658-8.897-9.052-8.897s-9.052 4.03-9.052 8.897c0 4.929 3.658 8.897 9.052 8.897zm0-4.061c-2.635 0-4.681-2.139-4.681-4.836 0-2.666 2.046-4.805 4.681-4.805s4.681 2.139 4.681 4.805c0 2.697-2.046 4.836-4.681 4.836z"/><path d="m316.2 6.2c-2.48 0-4.805 1.085-6.045 2.976-.961-2.046-2.945-2.976-4.96-2.976-2.17-.031-4.185 1.085-5.146 2.883v-2.418h-4.278v16.895h4.371v-9.238c0-2.604 1.612-4.092 3.689-4.092 2.046 0 3.41 1.426 3.41 3.968v9.362h4.371v-9.269c0-2.511 1.581-4.061 3.72-4.061 1.953 0 3.379 1.271 3.379 3.937v9.393h4.371v-10.199c0-4.65-3.038-7.161-6.882-7.161z"/><path d="m336.536 6.231c-2.387 0-4.123 1.085-5.363 2.511v-2.077h-4.34v23.839h4.371v-8.897c1.24 1.333 2.945 2.356 5.301 2.356 4.867 0 8.339-3.968 8.339-8.866s-3.472-8.866-8.308-8.866zm-.775 13.733c-2.79 0-4.65-2.17-4.65-4.836s1.86-4.836 4.65-4.836c2.821 0 4.681 2.17 4.681 4.836s-1.86 4.836-4.681 4.836z"/><path d="m360.809 6.665v2.015c-1.271-1.395-3.007-2.449-5.394-2.449-4.805 0-8.37 3.72-8.37 8.804 0 5.022 3.472 8.928 8.37 8.928 2.387 0 4.154-1.023 5.394-2.356v1.953h4.154v-16.895zm-4.681 13.33c-2.79 0-4.712-2.201-4.712-4.898 0-2.635 1.891-4.867 4.712-4.867 2.79 0 4.743 2.232 4.743 4.867 0 2.666-1.953 4.898-4.743 4.898z"/><path d="m368.9 23.56h4.371v-9.052c0-2.542 1.581-4.278 3.875-4.278 2.108 0 3.565 1.457 3.565 4.185v9.145h4.371v-10.323c0-4.774-3.193-7.037-6.603-7.037-2.511 0-4.433 1.24-5.301 2.821v-2.356h-4.278z"/><path d="m400.365 6.665-3.844 11.005-4.371-11.005h-5.053l7.378 16.709-.341.775c-.868 1.86-1.891 2.666-3.286 2.666-.775 0-1.519-.248-2.17-.558l-.744 3.658c.837.527 1.984.837 3.255.837 3.441 0 5.549-2.201 7.161-6.355l6.789-17.732z"/></g><g transform="translate(0 .511832)"><path d="m29.3217788 31.5054209c0-7.0204036 4.3384431-11.4713522 13.3622748-11.4713522 3.9752849 0 7.7138684.4127767 11.4135421 1.2639286 3.6834614.8511519 4.8183306 1.2095317 8.9589821 2.6302515l9.1211063-17.93498724c-9.0238318-3.59339708-19.4289615-5.99326156-30.5377102-5.99326156-23.9424986 0-39.73339357 11.8137329-39.73339357 32.3597726 0 37.8442629 48.58213117 33.2173242 48.58213117 53.0818025 0 8.9018973-4.6821462 13.6376298-15.7876524 13.5224363-10.8266526-.1119936-16.6501531-2.1406791-27.52544298-5.772474l-7.17561612 18.6165486c12.6651408 4.793329 21.6889725 7.193194 34.7010591 7.193194 26.024173 0 43.1996085-13.186455 43.1996085-34.2476661 0-36.9835115-48.5788888-35.0988179-48.5788888-53.248193" mask="url(#a)" transform="translate(641.524076)"/><path d="m187.456081 22.7387693h29.668302.20498 26.586885 22.07397l7.594333-20.2655223h-86.12847z"/><path d="m450.90787 119v-21.3201692h-45.39938v-28.643792h27.51497v-20.0220237h-27.51497v-19.1923818l-25.529948-7.082864v96.2612307z"/><path d="m450.90787 2.473247h-70.929328v20.2655223l63.6904-.0130514z"/><path d="m177.32332 2.473247h-70.929328v20.2655223l63.690073-.0130514z"/><path d="m177.32332 119v-21.3201692h-45.40143v-28.643792h27.516212v-20.0220237h-27.516212v-19.1923818l-25.527898-7.082864v96.2612307z"/><path d="m496.505295 2.473247h-25.331902v96.2612307l25.331902-6.7784059z"/><path d="m481.084198 98.7344777h-9.910805v20.2655223h63.189828l7.739499-20.1919298h-45.150296z"/><path d="m582.633765 2.473247h-25.331903v96.2612307l25.331903-6.7784059z"/><path d="m567.213567 98.7344777h-9.911705v20.2655223h63.192344l7.736984-20.1919298h-45.151175z"/><path d="m243.186267 119-.246585-89.1395976-25.085318-7.1216331v96.2612307z"/><path d="m29.3217788 31.5054209c0-7.0204036 4.3384431-11.4713522 13.3622748-11.4713522 3.9752849 0 7.7138684.4127767 11.4102997 1.2639286 3.6867038.8511519 4.821573 1.2095317 8.958982 2.6302515l9.1243488-17.93498724c-9.0238318-3.59339708-19.432204-5.99326156-30.5344677-5.99326156-23.9457411 0-39.73339358 11.8137329-39.73339358 32.3597726 0 37.8442629 48.57888868 33.2173242 48.57888868 53.0818025 0 8.9018973-4.6853887 13.6376298-15.7876524 13.5224363-10.8266526-.1119936-16.6501531-2.1406791-27.52544298-5.772474l-7.17561612 18.6165486c12.6651408 4.793329 21.6889725 7.193194 34.7010591 7.193194 26.024173 0 43.1996085-13.186455 43.1996085-34.2476661 0-36.9835115-48.5788888-35.0988179-48.5788888-53.248193" mask="url(#b)" transform="translate(281.781549)"/><path d="m0 119h25.3319028v-55.0668496l-25.3319028-61.4599034z"/><path d="m64.8353211 71.4492204-38.2927166-68.9759734h-26.5426045l64.8353211 116.526753h26.3595291v-116.526753h-26.3595291z"/></g></g></svg>
