<svg xmlns="http://www.w3.org/2000/svg" viewBox="0 0 309 53" preserveAspectRatio="xMidYMin slice"><title>Netsells Logo</title><path fill="#ffffff" d="M288 14.3c0-3.1 1.9-5 5.8-5 1.7 0 3.3.2 4.9.6 1.6.4 2.1.5 3.9 1.2l4-7.9c-3.9-1.6-8.4-2.6-13.2-2.6-10.4 0-17.2 5.2-17.2 14.2 0 16.6 21 14.6 21 23.3 0 3.9-2 6-6.8 5.9-4.7 0-7.2-.9-11.9-2.5l-3.1 8.2c5.5 2.1 9.4 3.2 15 3.2 11.3 0 18.7-5.8 18.7-15 0-16.4-21.1-15.6-21.1-23.6zM82 10.2h32.8l3.2-8.7H82v8.7zM193.8 51.8v-9.2h-19.9V30.2H186v-8.6h-12.1v-8.3l-11.2-3.1v41.6h31.1zM193.8 1.5h-31.1v8.7h28l3.1-8.7zM76.1 1.5H45v8.7h27.9l3.2-8.7zM76.1 51.8v-9.2H56.2V30.2h12.1v-8.6H56.2v-8.3L45 10.2v41.6h31.1zM213.1 1.2h-11.3v41.3l11.3-2.9V1.2zM206.1 42.5h-4.3v9.3h27.6l3.4-9.3h-26.7zM250.1 1.2h-11.2v41.3l11.2-2.9V1.2zM243.2 42.5h-4.3v9.3h27.5l3.4-9.3h-26.6zM105.8 51.6l-.2-38.3-11.1-3.1v41.4h11.3zM134.9 14.3c0-3.1 1.9-5 5.8-5 1.7 0 3.3.2 4.9.6 1.6.4 2.1.5 3.9 1.2l4-7.9c-3.9-1.6-8.4-2.6-13.2-2.6-10.4 0-17.2 5.2-17.2 14.2 0 16.6 21 14.6 21 23.3 0 3.9-2 6-6.8 5.9-4.7 0-7.2-.9-11.9-2.5l-3.1 8.2c5.5 2.1 9.4 3.2 15 3.2 11.3 0 18.7-5.8 18.7-15 0-16.4-21.1-15.6-21.1-23.6zM.1 51.8h11.2V28L.1 1.5v50.3zM27.4 31.3L11.3 1.5H.1l27.3 50.3h11.2V1.5H27.4v29.8z"></path></svg>
